<svg width="300" height="150" xmlns="http://www.w3.org/2000/svg">
  <rect width="100%" height="100%"/>
  <!-- Barcode -->
  <rect x="10" y="20" width="10" height="100" fill="black"/>
  <rect x="25" y="20" width="5" height="100" fill="gray"/>
  <rect x="35" y="20" width="10" height="100" fill="black"/>
  <rect x="50" y="20" width="5" height="100" fill="gray"/>
  <rect x="60" y="20" width="10" height="100" fill="black"/>
  <rect x="75" y="20" width="5" height="100" fill="gray"/>
  <rect x="85" y="20" width="10" height="100" fill="black"/>
  <rect x="100" y="20" width="5" height="100" fill="gray"/>
  <rect x="110" y="20" width="10" height="100" fill="black"/>
  <rect x="125" y="20" width="5" height="100" fill="gray"/>
  <rect x="135" y="20" width="10" height="100" fill="black"/>
  <rect x="150" y="20" width="5" height="100" fill="gray"/>
  <rect x="160" y="20" width="10" height="100" fill="black"/>
  <rect x="175" y="20" width="5" height="100" fill="gray"/>
  <rect x="185" y="20" width="10" height="100" fill="black"/>
  <rect x="200" y="20" width="5" height="100" fill="gray"/>
  <rect x="210" y="20" width="10" height="100" fill="black"/>
  <rect x="225" y="20" width="5" height="100" fill="gray"/>
  <rect x="235" y="20" width="10" height="100" fill="black"/>
  <rect x="250" y="20" width="5" height="100" fill="gray"/>
  
</svg>
